<?xml version="1.0" encoding="UTF-8"?>
<svg width="48px" height="48px" viewBox="0 0 48 48" version="1.1" xmlns="http://www.w3.org/2000/svg" xmlns:xlink="http://www.w3.org/1999/xlink">
    <!-- Generator: Sketch 50.2 (55047) - http://www.bohemiancoding.com/sketch -->
    <title>Icons/freeze</title>
    <desc>Created with Sketch.</desc>
    <defs></defs>
    <g id="Icons/freeze" stroke="none" stroke-width="1" fill="none" fill-rule="evenodd">
        <rect id="Rectangle-2" fill="#00A4DB" x="0" y="0" width="48" height="48" rx="6"></rect>
        <g id="Group-6" transform="translate(10.000000, 8.000000)" fill="#FFFFFF">
            <g id="Rectangle" transform="translate(0.234043, 0.191489)">
                <path d="M26.8561841,17.269313 C26.5307417,16.6982357 25.8096807,16.5018029 25.2460777,16.8320055 L21.6223514,18.9514355 L16.2477275,15.8076218 L21.6223514,12.6638081 L25.2460777,14.7832381 C25.4307289,14.8925649 25.6346787,14.9432286 25.8333652,14.9432286 C26.2412647,14.9432286 26.6368833,14.7294635 26.8579385,14.3459306 C27.1833809,13.7748534 26.9899576,13.0437856 26.4263546,12.7140273 L23.9815893,11.2852231 L26.27723,9.94352486 C26.8408331,9.61332221 27.0364494,8.88269883 26.708814,8.31162157 C26.3833716,7.7405443 25.6605562,7.54411149 25.0969531,7.87386973 L22.8008738,9.21601242 L22.8008738,6.35662631 C22.8008738,5.69710983 22.2732361,5.16247485 21.6223514,5.16247485 C20.971028,5.16247485 20.4416359,5.69710983 20.4416359,6.35662631 L20.4416359,10.5959306 L15.0674506,13.7401888 L15.0674506,7.45033927 L18.6907383,5.33090931 C19.2543414,5.00115107 19.4499577,4.27008329 19.1227609,3.69900602 C18.7968799,3.12792875 18.0758189,2.93149594 17.5122159,3.2616986 L15.0674506,4.6900584 L15.0674506,2.00310651 C15.0674506,1.34314562 14.5393743,0.808510638 13.8884895,0.808510638 C13.2376048,0.808510638 12.7095285,1.34314562 12.7095285,2.00310651 L12.7095285,4.68828073 L10.2665176,3.25992093 C9.70291458,2.92971827 8.98141496,3.12615107 8.65597258,3.69722834 C8.3305302,4.26830561 8.52439211,4.9993734 9.08799515,5.32913164 L12.7112829,7.4485616 L12.7112829,13.7366334 L7.336659,10.5928197 L7.336659,6.35484863 C7.336659,5.69533216 6.80902129,5.16069718 6.15813654,5.16069718 C5.50725178,5.16069718 4.97785966,5.69533216 4.97785966,6.35484863 L4.97785966,9.21423474 L2.68178034,7.87253647 C2.1181773,7.54233382 1.39711629,7.73698895 1.07123531,8.30984389 C0.74579293,8.88092116 0.939654832,9.61198895 1.50325787,9.94174719 L3.79889859,11.2852231 L1.35588774,12.7140273 C0.792284698,13.0437856 0.598422796,13.7748534 0.923865175,14.3459306 C1.14185016,14.7294635 1.5392232,14.9432286 1.94668408,14.9432286 C2.14712501,14.9432286 2.34932034,14.8912317 2.53441021,14.7832381 L6.15813654,12.6638081 L11.5362692,15.8093995 L6.16515416,18.9514355 L2.53967343,16.8320055 C1.97607039,16.5018029 1.25457077,16.6982357 0.929128394,17.269313 C0.603686015,17.8403902 0.797109316,18.571458 1.36115096,18.9012163 L3.80416181,20.3300205 L1.50808249,21.6717187 C0.94447945,22.0019214 0.751056149,22.7325448 1.07649853,23.303622 C1.29404492,23.6858216 1.69141796,23.90092 2.09931743,23.90092 C2.29975836,23.90092 2.50195369,23.8507007 2.68704356,23.7413739 L4.98268428,22.3992312 L4.98268428,25.2568396 C4.98268428,25.9163561 5.51032199,26.4527688 6.16164535,26.4527688 C6.81253011,26.4527688 7.34016782,25.9181338 7.34016782,25.2568396 L7.34016782,21.0224239 L12.7147917,17.8786102 L12.7147917,24.166682 L9.09281977,26.286112 C8.52746232,26.6158702 8.33403902,27.346938 8.6612358,27.9180153 C8.87878219,28.3015481 9.27615523,28.5170909 9.68405471,28.5170909 C9.88449563,28.5170909 10.0884454,28.4646495 10.2735352,28.3553227 L12.7165461,26.9269629 L12.7165461,29.6121371 C12.7165461,30.272098 13.2441838,30.8085106 13.8955072,30.8085106 C14.5463919,30.8085106 15.075784,30.2738757 15.075784,29.6121371 L15.075784,26.9269629 L17.5187949,28.3553227 C17.7056392,28.4646495 17.9078345,28.5170909 18.106521,28.5170909 C18.5144205,28.5170909 18.9100391,28.3015481 19.1293399,27.9180153 C19.4547823,27.346938 19.261359,26.6158702 18.697756,26.286112 L15.0740296,24.166682 L15.0740296,17.8821655 L20.4403201,21.0224239 L20.4403201,25.260395 C20.4403201,25.9199114 20.9679578,26.4563241 21.6205969,26.4563241 C22.2714817,26.4563241 22.8008738,25.9216891 22.8008738,25.260395 L22.8008738,22.4027865 L25.0969531,23.7444848 C25.2833588,23.8538117 25.4855541,23.9044753 25.6846793,23.9044753 C26.0921401,23.9044753 26.4881974,23.6889325 26.7074982,23.3071774 C27.0329406,22.7343224 26.8373242,22.0032547 26.2754756,21.6752741 L23.9798349,20.3335758 L26.4228457,18.9047716 C26.9882032,18.5732357 27.1820651,17.8421679 26.8561841,17.269313 L26.8561841,17.269313 Z" id="Page-1"></path>
            </g>
        </g>
    </g>
</svg>