<?xml version="1.0" encoding="UTF-8"?>
<svg width="48px" height="48px" viewBox="0 0 48 48" version="1.1" xmlns="http://www.w3.org/2000/svg" xmlns:xlink="http://www.w3.org/1999/xlink">
    <!-- Generator: Sketch 50.2 (55047) - http://www.bohemiancoding.com/sketch -->
    <title>Icons/currency</title>
    <desc>Created with Sketch.</desc>
    <defs></defs>
    <g id="Icons/currency" stroke="none" stroke-width="1" fill="none" fill-rule="evenodd">
        <rect id="Rectangle-2" fill="#00A4DB" x="0" y="0" width="48" height="48" rx="6"></rect>
        <path d="M15.36,24.996 L17.88,25.554 C17.484,28.452 15.702,30.27 12.894,30.27 C10.464,30.27 8.412,28.992 7.692,26.004 L6.342,26.004 L6.342,24.384 L7.458,24.384 C7.44,24.096 7.422,23.808 7.422,23.502 L7.422,23.178 L6.342,23.178 L6.342,21.558 L7.638,21.558 C8.322,18.642 10.572,17.13 12.876,17.13 C15.432,17.13 17.466,18.822 17.754,21.612 L15.342,21.99 C15.144,20.64 14.478,19.38 12.894,19.38 C11.76,19.38 10.698,20.118 10.212,21.558 L13.272,21.558 L13.272,23.178 L9.924,23.178 L9.924,23.502 C9.924,23.826 9.942,24.114 9.96,24.384 L13.272,24.384 L13.272,26.004 L10.284,26.004 C10.806,27.444 11.814,28.02 12.894,28.02 C14.532,28.02 15.162,26.706 15.36,24.996 Z M19.59,25.788 L22.146,25.23 C22.416,26.778 22.92,27.732 24.234,27.948 L24.234,24.42 C21.084,23.502 20.112,22.278 20.112,20.712 C20.112,18.948 21.57,17.292 24.234,17.148 L24.234,16.05 L25.224,16.05 L25.224,17.166 C27.276,17.328 28.95,18.354 29.472,20.514 L27.204,21.18 C26.898,20.352 26.358,19.578 25.224,19.434 L25.224,22.422 C28.824,23.52 29.796,24.654 29.796,26.4 C29.796,28.686 28.05,30.18 25.224,30.27 L25.224,31.764 L24.234,31.764 L24.234,30.234 C21.696,30 19.95,28.542 19.59,25.788 Z M25.224,24.708 L25.224,28.02 C26.574,28.02 27.42,27.516 27.42,26.49 C27.42,25.626 26.952,25.23 25.224,24.708 Z M22.506,20.676 C22.506,21.342 22.938,21.684 24.234,22.098 L24.234,19.398 C22.956,19.452 22.506,20.046 22.506,20.676 Z M31.83,27.894 L31.83,26.004 L35.43,26.004 L35.43,24.618 L31.83,24.618 L31.83,22.728 L34.314,22.728 L31.326,17.4 L33.99,17.4 L36.618,22.386 L36.654,22.386 L39.336,17.4 L42.018,17.4 L38.976,22.728 L41.46,22.728 L41.46,24.618 L37.86,24.618 L37.86,26.004 L41.46,26.004 L41.46,27.894 L37.86,27.894 L37.86,30 L35.43,30 L35.43,27.894 L31.83,27.894 Z" id="€$¥" fill="#FFFFFF"></path>
    </g>
</svg>